<svg width="27" height="21" viewBox="0 0 27 21" fill="none" xmlns="http://www.w3.org/2000/svg">
<path d="M24.896 0.0152102H21.971H21.101L19.7952 0.0151078C19.6593 0.0151078 15.9531 -0.01896 15.8172 0.0152034L12.0058 0.015156H1.80258C0.816383 0.015156 0 0.865428 0 1.88582V19.1293C0 20.1497 0.816323 21 1.80258 21H24.896C25.8822 21 26.6986 20.1497 26.6986 19.1293L26.6988 1.88582C26.6988 0.865428 25.8825 0.015156 24.8962 0.015156L24.896 0.0152102ZM1.80256 1.37552H24.896C25.1342 1.37552 25.3382 1.61372 25.3382 1.88559V14.7417L18.3319 6.30701C17.8558 5.72885 17.0055 5.72885 16.5294 6.30701L11.0875 13.0412C10.6113 13.6193 9.76106 13.6193 9.28491 13.0412L6.90421 10.1501C6.42807 9.57196 5.57778 9.57196 5.10163 10.1501L1.36031 14.6397L1.36055 1.88559C1.36055 1.61347 1.56457 1.37529 1.80252 1.37529L1.80256 1.37552Z" fill="#456EFF"/>
<path d="M12.6257 5.44518C12.6257 6.76019 11.5598 7.82589 10.245 7.82589C8.93024 7.82589 7.8643 6.76019 7.8643 5.44518C7.8643 4.13042 8.93024 3.06448 10.245 3.06448C11.5598 3.06448 12.6257 4.13042 12.6257 5.44518Z" fill="#456EFF"/>
</svg>
