<svg width="20" height="16" viewBox="0 0 20 16" fill="none" xmlns="http://www.w3.org/2000/svg">
<path d="M6.34108e-09 4.55467L9.68546 9.48C9.78261 9.52939 9.8905 9.55518 10 9.55518C10.1095 9.55518 10.2174 9.52939 10.3145 9.48L20 4.55556V13.1111C20 13.849 19.7113 14.559 19.193 15.0953C18.6747 15.6317 17.9662 15.9538 17.2127 15.9956L17.0455 16H2.95455C2.19987 16 1.47379 15.7177 0.925245 15.211C0.376697 14.7042 0.0472715 14.0114 0.00454557 13.2747L6.34108e-09 13.1111V4.55467ZM2.95455 6.20017e-09H17.0455C17.8001 -4.83082e-05 18.5262 0.28227 19.0748 0.789041C19.6233 1.29581 19.9527 1.98862 19.9955 2.72533L20 2.88889V3.05244L10 8.13689L6.34108e-09 3.05244V2.88889C-4.94061e-05 2.15099 0.288686 1.44104 0.806974 0.904684C1.32526 0.368326 2.03381 0.046221 2.78727 0.00444455L2.95455 6.20017e-09H17.0455H2.95455Z" fill="white"/>
</svg>
