<svg width="14" height="15" viewBox="0 0 14 15" fill="none" xmlns="http://www.w3.org/2000/svg">
<path d="M0.878688 14.1941H0.957438H0.878688ZM0.878688 14.1941C0.76353 14.1948 0.649375 14.1723 0.542766 14.128C0.436157 14.0837 0.339191 14.0184 0.25743 13.9359L0.878688 14.1941ZM4.54308 13.2088L0.927366 13.5441L0.878688 13.5441L0.87486 13.5441C0.84683 13.5443 0.818784 13.5388 0.792225 13.5278C0.765842 13.5168 0.741089 13.5004 0.719658 13.4789C0.695841 13.4546 0.676826 13.4245 0.664685 13.3905C0.652716 13.3569 0.647914 13.3207 0.65083 13.2846L1.02662 9.57642L1.02684 9.57421C1.05236 9.31348 1.165 9.07147 1.34339 8.88804C1.34366 8.88777 1.34393 8.88749 1.34419 8.88722L9.19602 0.897796C9.39949 0.730459 9.65328 0.643461 9.9118 0.650384C10.1753 0.65744 10.4292 0.7617 10.6257 0.94648L13.0152 3.37794L13.0208 3.38355L13.0264 3.38903C13.2249 3.58145 13.3424 3.84848 13.3496 4.13236C13.3568 4.41359 13.2549 4.6843 13.0695 4.88667L5.20332 12.8907C5.20304 12.891 5.20277 12.8913 5.20249 12.8915C5.02308 13.0722 4.79014 13.1832 4.54308 13.2088Z" fill="#E72D38" stroke="#F4F5F5" stroke-width="1.3"/>
</svg>
