<svg width="28" height="28" viewBox="0 0 28 28" fill="none" xmlns="http://www.w3.org/2000/svg">
<path d="M9.73149 17.1619H4.44509C4.10916 16.1539 3.92993 15.1011 3.92993 14.0035C3.92993 12.9058 4.10915 11.853 4.44509 10.845H9.73149C9.59712 11.853 9.52993 12.9058 9.52993 14.0035C9.52993 15.1011 9.59712 16.1539 9.73149 17.1619ZM4.91549 18.3491C6.30425 21.2386 9.03709 23.3891 12.3075 23.9267C11.2323 22.9187 10.3811 20.9698 9.88829 18.3491H4.91549ZM12.3075 4.08029C9.03701 4.61793 6.32669 6.76825 4.91549 9.65789H9.93309C10.3811 7.01461 11.277 5.06589 12.3075 4.08029H12.3075ZM11.1427 18.3491C11.8147 21.7091 13.0691 23.4787 14.0099 23.4787C14.9507 23.4787 16.205 21.7092 16.8771 18.3491H11.1427ZM16.8547 9.65789C16.1826 6.29789 14.9283 4.52829 14.0098 4.52829C13.0914 4.52829 11.8147 6.29781 11.1426 9.65789H16.8546H16.8547ZM10.7395 14.0035C10.7395 15.1011 10.8066 16.154 10.9635 17.1619H17.1011C17.2355 16.1763 17.3252 15.1235 17.3252 14.0035C17.3252 13.0627 17.258 12.0099 17.1011 10.8451H10.9635C10.8068 11.853 10.7395 12.9059 10.7395 14.0035ZM15.6899 23.9267C18.9603 23.3891 21.7155 21.2387 23.0819 18.3491L18.0643 18.3492C17.5939 20.9924 16.7203 22.9412 15.6899 23.9268L15.6899 23.9267ZM23.0819 9.65789C21.6706 6.76837 18.9603 4.61789 15.6899 4.08029C16.765 5.08825 17.6163 7.03717 18.1091 9.65789H23.0819ZM23.5522 10.8451H18.2658C18.4002 12.0099 18.4898 13.0179 18.4898 14.0035C18.4898 15.1012 18.4226 16.154 18.3106 17.162H23.597C23.9106 16.1763 24.0898 15.1012 24.0898 14.0035C24.0898 12.9059 23.8658 11.8531 23.5522 10.8451H23.5522Z" fill="white"/>
</svg>
