<svg width="12" height="16" viewBox="0 0 12 16" fill="none" xmlns="http://www.w3.org/2000/svg">
<path d="M1.86773 0.46705L3.15978 0.0777966C3.58619 -0.0504663 4.04474 -0.0193459 4.44989 0.165353C4.85504 0.350051 5.17911 0.675714 5.36165 1.08159L6.26748 3.09451C6.4247 3.44372 6.46852 3.83337 6.39279 4.20874C6.31706 4.5841 6.12559 4.92635 5.84525 5.18742L4.46649 6.47116C4.28173 6.64645 4.4218 7.32965 5.09684 8.49874C5.77254 9.6685 6.29483 10.1311 6.53563 10.0591L8.34195 9.5072C8.7081 9.39529 9.10011 9.40067 9.46303 9.5226C9.82596 9.64452 10.1416 9.87686 10.3657 10.1871L11.6531 11.97C11.9131 12.3301 12.0335 12.7722 11.9919 13.2142C11.9504 13.6563 11.7496 14.0682 11.427 14.3735L10.4318 15.3153C10.1105 15.6194 9.71426 15.8328 9.2835 15.9338C8.85274 16.0349 8.40286 16.02 7.97976 15.8906C5.89461 15.2527 3.96355 13.3597 2.16056 10.2384C0.35357 7.11236 -0.328804 4.47556 0.14679 2.32134C0.242712 1.88726 0.452751 1.4866 0.755255 1.16066C1.05776 0.834718 1.44178 0.595288 1.86773 0.46705Z" fill="white"/>
</svg>
