<svg width="50" height="50" viewBox="0 0 50 50" fill="none" xmlns="http://www.w3.org/2000/svg">
<path d="M25 30.5C26.25 30.5 27.3127 30.0627 28.188 29.188C29.0627 28.3127 29.5 27.25 29.5 26C29.5 24.75 29.0627 23.6873 28.188 22.812C27.3127 21.9373 26.25 21.5 25 21.5C23.75 21.5 22.6873 21.9373 21.812 22.812C20.9373 23.6873 20.5 24.75 20.5 26C20.5 27.25 20.9373 28.3127 21.812 29.188C22.6873 30.0627 23.75 30.5 25 30.5ZM17 34C16.45 34 15.9793 33.8043 15.588 33.413C15.196 33.021 15 32.55 15 32V20C15 19.45 15.196 18.9793 15.588 18.588C15.9793 18.196 16.45 18 17 18H20.15L22 16H28L29.85 18H33C33.55 18 34.021 18.196 34.413 18.588C34.8043 18.9793 35 19.45 35 20V32C35 32.55 34.8043 33.021 34.413 33.413C34.021 33.8043 33.55 34 33 34H17Z" fill="#E72D38"/>
<circle cx="25" cy="25" r="24.25" stroke="#D9D8D8" stroke-width="1.5"/>
</svg>
