<svg width="124" height="124" viewBox="0 0 124 124" fill="none" xmlns="http://www.w3.org/2000/svg">
<circle cx="62" cy="62" r="62" fill="white"/>
<path d="M62.4109 5C30.7442 5 5 30.7782 5 62.4865C5 94.1948 30.7442 119.973 62.4109 119.973C94.0775 119.973 119.822 94.1948 119.822 62.4865C119.822 30.7782 94.0775 5 62.4109 5ZM62.4109 37.9186C72.3222 37.9186 80.42 46.0272 80.42 55.9514C80.42 65.8756 72.322 73.9842 62.4109 73.9842C52.4997 73.9842 44.4018 65.8756 44.4018 55.9514C44.4018 46.0272 52.4997 37.9186 62.4109 37.9186ZM30.986 97.3415V94.6789C30.986 87.0542 37.1499 80.7616 44.885 80.7616H79.9359C87.5506 80.7616 93.8349 86.9336 93.8349 94.6789V97.3415C85.495 104.845 74.4961 109.444 62.41 109.444C50.3252 109.444 39.327 104.845 30.9873 97.3415H30.986Z" fill="#CBCBCB"/>
<rect x="87.5088" y="97.6377" width="23.0025" height="23.0341" rx="11.5012" fill="black" stroke="white"/>
<path d="M92.8883 116.957H92.9671H92.8883ZM92.8883 116.957C92.7731 116.958 92.659 116.935 92.5523 116.889C92.4457 116.844 92.3487 116.776 92.267 116.692L92.8883 116.957ZM96.5512 115.962L92.9361 116.307L92.8883 116.307L92.8844 116.307C92.859 116.307 92.8331 116.302 92.8079 116.292C92.7828 116.281 92.758 116.264 92.7356 116.241C92.7107 116.215 92.6898 116.182 92.6761 116.142C92.6626 116.103 92.6571 116.061 92.6605 116.018L93.0364 112.202L93.0366 112.2C93.0629 111.923 93.1791 111.669 93.3593 111.478C93.3596 111.478 93.3599 111.478 93.3602 111.477L101.213 103.257C101.417 103.084 101.669 102.997 101.922 103.004C102.18 103.011 102.432 103.116 102.63 103.307L105.02 105.809L105.025 105.815L105.031 105.82C105.231 106.02 105.353 106.301 105.361 106.604C105.368 106.904 105.262 107.19 105.074 107.401L97.207 115.636C97.2067 115.636 97.2064 115.637 97.2061 115.637C97.0252 115.824 96.7935 115.937 96.5512 115.962Z" fill="white" stroke="black" stroke-width="1.3"/>
</svg>
