<svg width="24" height="24" viewBox="0 0 24 24" fill="none" xmlns="http://www.w3.org/2000/svg">
<g clip-path="url(#clip0_1_204)">
<path d="M9.00299 8.25C9.00299 8.84674 8.76594 9.41903 8.34398 9.84099C7.92202 10.2629 7.34973 10.5 6.75299 10.5C6.15625 10.5 5.58396 10.2629 5.162 9.84099C4.74004 9.41903 4.50299 8.84674 4.50299 8.25C4.50299 7.65326 4.74004 7.08097 5.162 6.65901C5.58396 6.23705 6.15625 6 6.75299 6C7.34973 6 7.92202 6.23705 8.34398 6.65901C8.76594 7.08097 9.00299 7.65326 9.00299 8.25Z" fill="#E72D38"/>
<path d="M3.00299 1.5C2.20734 1.5 1.44428 1.81607 0.88167 2.37868C0.319061 2.94129 0.00299072 3.70435 0.00299072 4.5V19.5C0.00299072 20.2956 0.319061 21.0587 0.88167 21.6213C1.44428 22.1839 2.20734 22.5 3.00299 22.5H21.003C21.7986 22.5 22.5617 22.1839 23.1243 21.6213C23.6869 21.0587 24.003 20.2956 24.003 19.5V4.5C24.003 3.70435 23.6869 2.94129 23.1243 2.37868C22.5617 1.81607 21.7986 1.5 21.003 1.5H3.00299ZM21.003 3C21.4008 3 21.7823 3.15804 22.0637 3.43934C22.345 3.72064 22.503 4.10218 22.503 4.5V14.25L16.8375 11.3295C16.6968 11.259 16.5376 11.2346 16.3822 11.2596C16.2269 11.2847 16.0834 11.3579 15.972 11.469L10.407 17.034L6.41699 14.376C6.27293 14.2801 6.10013 14.237 5.9279 14.2539C5.75566 14.2709 5.59459 14.3468 5.47199 14.469L1.50299 18V4.5C1.50299 4.10218 1.66103 3.72064 1.94233 3.43934C2.22364 3.15804 2.60517 3 3.00299 3H21.003Z" fill="#E72D38"/>
</g>
<defs>
<clipPath id="clip0_1_204">
<rect width="24" height="24" fill="white"/>
</clipPath>
</defs>
</svg>
