<svg width="8" height="10" viewBox="0 0 8 10" fill="none" xmlns="http://www.w3.org/2000/svg">
<path d="M6.42337 2.57482C6.42337 3.99691 5.27055 5.14964 3.84855 5.14964C2.42655 5.14964 1.27373 3.99682 1.27373 2.57482C1.27373 1.15282 2.42655 0 3.84855 0C5.27055 0 6.42337 1.15282 6.42337 2.57482Z" fill="white"/>
<path d="M7.51783 7.23743C7.2502 6.73164 6.74851 6.4296 6.17635 6.4296H1.51976C0.947893 6.4296 0.446831 6.73164 0.178914 7.23714C-0.0890031 7.74328 -0.0567775 8.32776 0.280677 8.82446C0.6194 9.3227 1.12801 9.66359 1.71313 9.78398C2.41101 9.92735 3.1295 9.99999 3.84834 9.99999C4.56718 9.99999 5.28558 9.92735 5.98355 9.7839C6.56833 9.66352 7.07735 9.32234 7.41698 8.82283L7.43214 8.80069C7.75371 8.32741 7.78596 7.74321 7.51804 7.23742L7.51783 7.23743Z" fill="white"/>
</svg>
