<svg width="18" height="18" viewBox="0 0 18 18" fill="none" xmlns="http://www.w3.org/2000/svg">
<path fill-rule="evenodd" clip-rule="evenodd" d="M9 17.25C9 17.25 15.75 12.75 15.75 7.5C15.75 5.70979 15.0388 3.9929 13.773 2.72703C12.5071 1.46116 10.7902 0.75 9 0.75C7.20979 0.75 5.4929 1.46116 4.22703 2.72703C2.96116 3.9929 2.25 5.70979 2.25 7.5C2.25 12.75 9 17.25 9 17.25ZM11.25 7.5C11.25 8.74264 10.2426 9.75 9 9.75C7.75736 9.75 6.75 8.74264 6.75 7.5C6.75 6.25736 7.75736 5.25 9 5.25C10.2426 5.25 11.25 6.25736 11.25 7.5Z" fill="white"/>
</svg>
